<?xml version="1.0" standalone="no"?>
<!DOCTYPE svg PUBLIC "-//W3C//DTD SVG 20010904//EN"
 "http://www.w3.org/TR/2001/REC-SVG-20010904/DTD/svg10.dtd">
<svg version="1.0" xmlns="http://www.w3.org/2000/svg"
 width="400.000000pt" height="400.000000pt" viewBox="0 0 400.000000 400.000000"
 preserveAspectRatio="xMidYMid meet">

<g transform="translate(0.000000,400.000000) scale(0.100000,-0.100000)"
fill="#000000" stroke="none">
<path d="M1775 3826 c-213 -29 -404 -87 -590 -180 -508 -252 -863 -717 -977
-1278 -20 -99 -23 -143 -23 -348 0 -209 3 -248 24 -350 178 -858 914 -1460
1785 -1460 211 0 468 50 654 126 290 120 498 260 673 455 242 270 382 545 449
885 27 137 37 388 21 541 -33 322 -164 653 -358 906 -66 86 -225 249 -307 315
-240 192 -540 324 -861 378 -130 21 -369 26 -490 10z m253 -333 c31 -62 44
-108 63 -215 6 -38 12 -68 14 -68 1 0 19 7 38 15 81 34 131 12 157 -67 9 -29
9 -46 0 -73 -12 -36 -84 -135 -99 -135 -4 0 -16 18 -26 41 -19 40 -48 69 -72
69 -7 0 -20 -16 -28 -37 -13 -30 -15 -91 -13 -386 l3 -349 109 108 c60 60 117
123 127 139 43 69 6 108 -74 80 -23 -9 -46 -17 -51 -18 -13 -3 -7 107 8 151
17 49 66 82 122 82 35 0 47 -5 69 -31 14 -18 29 -45 32 -60 3 -16 8 -29 11
-29 2 0 35 23 72 50 80 59 187 110 231 110 29 0 31 -2 25 -27 -12 -50 -72
-167 -116 -225 -23 -31 -41 -60 -39 -64 2 -4 27 -20 54 -34 49 -25 50 -27 53
-77 3 -45 -1 -55 -28 -87 -32 -36 -65 -49 -146 -59 -57 -7 -68 2 -49 39 17 34
20 100 4 109 -6 4 -29 0 -52 -9 -31 -11 -87 -60 -204 -178 l-163 -163 -2 -200
-3 -200 -65 0 -65 0 -3 201 -2 201 -160 161 c-160 162 -203 196 -243 190 -17
-2 -23 -11 -25 -40 -2 -20 4 -51 13 -68 9 -17 13 -35 10 -41 -7 -10 -69 -5
-135 12 -71 17 -123 102 -100 160 13 29 72 69 105 69 23 0 19 12 -30 75 -52
67 -113 186 -117 230 -3 28 -1 30 27 27 42 -4 180 -73 243 -122 29 -22 54 -40
56 -40 2 0 6 13 9 29 3 15 18 42 32 60 22 25 34 31 66 31 90 0 139 -61 139
-174 l0 -65 -35 15 c-45 18 -104 18 -111 -1 -14 -35 20 -84 136 -200 l120
-120 0 358 c0 301 -2 363 -15 387 -9 18 -24 30 -35 30 -21 0 -55 -43 -72 -91
l-11 -33 -40 45 c-22 24 -49 64 -59 88 -18 38 -18 49 -8 88 22 76 78 101 156
68 33 -14 35 -13 43 8 5 12 11 45 15 72 13 95 72 245 97 245 5 0 22 -26 37
-57z m-898 -1952 c59 -31 91 -80 97 -148 6 -70 -7 -120 -45 -165 -37 -44 -76
-57 -201 -64 l-111 -7 0 -114 0 -113 -65 0 -65 0 0 315 0 315 178 0 c154 0
182 -2 212 -19z m1628 -38 l-3 -58 -62 -3 -63 -3 0 61 0 60 65 0 66 0 -3 -57z
m-1120 -127 c50 -26 56 -46 63 -231 3 -93 10 -180 14 -192 7 -22 5 -23 -59
-23 -52 0 -66 3 -66 15 0 20 -13 19 -52 -5 -44 -27 -141 -27 -184 -1 -36 22
-64 75 -64 123 0 78 66 129 193 149 73 12 94 27 78 57 -22 41 -103 37 -134 -8
-13 -19 -18 -20 -68 -9 -30 6 -55 13 -57 14 -2 2 3 18 11 38 16 38 68 82 107
90 49 11 186 0 218 -17z m423 14 c78 -22 139 -121 139 -227 l0 -43 -145 0
c-143 0 -145 0 -145 -22 0 -12 12 -35 27 -50 37 -38 76 -37 112 3 26 28 32 30
73 24 58 -9 72 -18 64 -43 -22 -69 -96 -112 -192 -112 -143 0 -224 83 -224
230 0 113 42 191 125 234 34 18 113 21 166 6z m498 -1 c34 -12 34 -15 5 -85
-14 -32 -16 -33 -57 -28 -34 5 -46 2 -59 -13 -25 -27 -38 -108 -38 -229 l0
-104 -65 0 -65 0 2 228 3 227 58 3 c43 2 59 -1 63 -12 5 -13 10 -12 37 5 36
22 70 24 116 8z m592 1 c19 -5 48 -24 65 -41 l29 -30 6 -177 c3 -97 9 -185 13
-194 7 -16 2 -18 -52 -18 -46 0 -63 4 -70 17 -9 15 -13 14 -54 -5 -122 -60
-248 -1 -248 115 0 83 59 131 188 153 40 7 77 19 83 26 17 21 -7 52 -45 59
-38 8 -70 -6 -86 -36 -9 -16 -17 -19 -48 -13 -66 11 -72 14 -72 41 0 33 68
100 107 106 55 8 149 7 184 -3z m-393 -232 l2 -228 -65 0 -65 0 0 230 0 231
63 -3 62 -3 3 -227z"/>
<path d="M877 1433 c-9 -8 -9 -116 -1 -137 5 -12 21 -16 65 -16 103 0 158 38
144 100 -10 44 -43 60 -128 60 -41 0 -77 -3 -80 -7z"/>
<path d="M1505 1124 c-27 -7 -53 -13 -58 -14 -17 -1 -29 -47 -18 -69 18 -33
93 -30 120 5 21 26 28 78 14 87 -5 3 -30 -1 -58 -9z"/>
<path d="M1963 1290 c-28 -12 -59 -58 -47 -70 16 -16 97 -23 126 -11 20 7 25
15 21 30 -10 40 -61 66 -100 51z"/>
<path d="M3018 1114 c-41 -17 -55 -43 -39 -72 20 -37 88 -36 119 1 7 8 16 31
19 51 6 35 5 36 -28 35 -19 0 -51 -7 -71 -15z"/>
</g>
</svg>
